<svg width="0" height="0" class="hidden">
  <symbol fill="#000000" xmlns="http://www.w3.org/2000/svg" viewBox="0 0 24 24" id="linkedin">
    <path d="M19,3H5C3.895,3,3,3.895,3,5v14c0,1.105,0.895,2,2,2h14c1.105,0,2-0.895,2-2V5C21,3.895,20.105,3,19,3z M9,17H6.477v-7H9V17z M7.694,8.717c-0.771,0-1.286-0.514-1.286-1.2s0.514-1.2,1.371-1.2c0.771,0,1.286,0.514,1.286,1.2S8.551,8.717,7.694,8.717z M18,17h-2.442v-3.826c0-1.058-0.651-1.302-0.895-1.302s-1.058,0.163-1.058,1.302c0,0.163,0,3.826,0,3.826h-2.523v-7h2.523v0.977C13.93,10.407,14.581,10,15.802,10C17.023,10,18,10.977,18,13.174V17z"></path>
  </symbol>
  <symbol fill="#000000" xmlns="http://www.w3.org/2000/svg" viewBox="0 0 24 24" id="telegram">
    <path fill="none" stroke="#000000" stroke-miterlimit="10" stroke-width="2" d="M19.882,4.102C19.331,4.319,7.704,9.216,3.7,10.901c-0.234,0.098-0.697,0.248-0.697,0.736c0,0.392,0.301,0.586,0.648,0.724C4.527,12.71,7.75,14,7.75,14s1.151,3.445,1.39,4.2c0.239,0.756,0.431,0.774,0.431,0.774c0.053,0.023,0.105,0.032,0.153,0.032c0.154,0,0.272-0.09,0.272-0.09L13,16.375l3.524,3.26c0,0,0.35,0.365,0.737,0.365c0.471,0,0.812-0.47,0.872-0.775C18.216,18.798,20.95,5.07,20.95,5.07C21.198,3.963,20.463,3.873,19.882,4.102z"></path>
    <path d="M16.8,8c-0.125,0-0.294,0.119-0.384,0.175c-1.288,0.803-7.746,4.478-9.517,5.484C7.398,13.859,7.75,14,7.75,14s1.151,3.445,1.39,4.2c0.239,0.756,0.431,0.774,0.431,0.774c0.053,0.023,0.105,0.032,0.153,0.032c0.039,0,0.066-0.014,0.099-0.023L11,14.375c0,0,5.363-5.428,5.686-5.744C16.946,8.378,17,8.289,17,8.201C17,8.084,16.939,8,16.8,8z"></path>
  </symbol>
  <symbol fill="#000000" xmlns="http://www.w3.org/2000/svg" viewBox="0 0 24 24" id="instagram">
    <path d="M16,3H8C5.239,3,3,5.239,3,8v8c0,2.761,2.239,5,5,5h8c2.761,0,5-2.239,5-5V8C21,5.239,18.761,3,16,3z M12,17c-2.761,0-5-2.239-5-5s2.239-5,5-5s5,2.239,5,5S14.761,17,12,17z M18,7c-0.552,0-1-0.448-1-1s0.448-1,1-1s1,0.448,1,1S18.552,7,18,7z"></path>
    <path d="M12 9A3 3 0 1 0 12 15A3 3 0 1 0 12 9Z"></path>
  </symbol>
</svg>